<svg width="759" height="711" viewBox="0 0 759 711" fill="none" xmlns="http://www.w3.org/2000/svg">
<path d="M757.65 197C757.65 304.935 661.226 392.65 542 392.65C422.774 392.65 326.35 304.935 326.35 197C326.35 89.0654 422.774 1.35 542 1.35C661.226 1.35 757.65 89.0654 757.65 197Z" stroke="white" stroke-width="2.7"/>
<path d="M246.25 647C246.25 681.825 213.123 710.25 172 710.25C130.877 710.25 97.75 681.825 97.75 647C97.75 612.175 130.877 583.75 172 583.75C213.123 583.75 246.25 612.175 246.25 647Z" stroke="white" stroke-width="1.5"/>
<path d="M262.1 343C262.1 404.229 203.769 454.1 131.5 454.1C59.2307 454.1 0.9 404.229 0.9 343C0.9 281.771 59.2307 231.9 131.5 231.9C203.769 231.9 262.1 281.771 262.1 343Z" stroke="white" stroke-width="1.8"/>
<path d="M99.736 357.936H89.572V356.484C90.8334 356.484 91.7427 356.293 92.3 355.912C92.828 355.531 93.092 354.885 93.092 353.976V342.404H77.428V353.976C77.428 354.944 77.6334 355.589 78.044 355.912C78.6014 356.293 79.5987 356.484 81.036 356.484V357.936H70.916V356.484C72.4707 356.484 73.512 356.264 74.04 355.824C74.4214 355.443 74.612 354.827 74.612 353.976V330.964C74.612 330.113 74.4067 329.527 73.996 329.204C73.4387 328.793 72.4414 328.588 71.004 328.588V327.18H80.904V328.588C79.496 328.588 78.5574 328.793 78.088 329.204C77.648 329.556 77.428 330.143 77.428 330.964V340.776H93.092V330.964C93.092 330.143 92.828 329.556 92.3 329.204C91.7427 328.793 90.8187 328.588 89.528 328.588V327.18H99.516V328.588C98.108 328.588 97.1254 328.793 96.568 329.204C96.1574 329.527 95.952 330.113 95.952 330.964V353.976C95.952 354.944 96.1574 355.589 96.568 355.912C97.1254 356.293 98.1814 356.484 99.736 356.484V357.936ZM128.677 327.224C129.117 328.485 129.557 329.732 129.997 330.964C130.437 332.196 130.862 333.472 131.273 334.792C131.038 334.851 130.818 334.924 130.613 335.012C130.437 335.1 130.232 335.173 129.997 335.232C129.44 334 128.897 333.003 128.369 332.24C127.87 331.448 127.372 330.817 126.873 330.348C126.228 329.761 125.465 329.365 124.585 329.16C123.705 328.955 122.84 328.852 121.989 328.852C120.288 328.852 119.173 328.984 118.645 329.248C118.058 329.512 117.765 330.04 117.765 330.832V354.196C117.765 355.047 118.088 355.648 118.733 356C119.32 356.323 120.596 356.484 122.561 356.484V357.892H110.153V356.484C111.913 356.484 113.101 356.337 113.717 356.044C114.538 355.663 114.949 355.047 114.949 354.196V330.48C114.949 329.864 114.714 329.439 114.245 329.204C113.805 328.969 112.91 328.852 111.561 328.852C110.534 328.852 109.478 328.94 108.393 329.116C107.337 329.292 106.428 329.703 105.665 330.348C105.342 330.612 105.034 330.935 104.741 331.316C104.448 331.668 104.11 332.137 103.729 332.724C103.494 333.105 103.274 333.487 103.069 333.868C102.864 334.22 102.644 334.601 102.409 335.012C102.233 334.924 102.057 334.851 101.881 334.792C101.734 334.704 101.573 334.616 101.397 334.528C101.837 333.296 102.277 332.079 102.717 330.876C103.157 329.673 103.597 328.456 104.037 327.224H128.677ZM167.1 357.892H156.628V356.484C158.3 356.484 159.414 356.249 159.972 355.78C160.441 355.34 160.676 354.695 160.676 353.844V330.04C158.828 334.792 157.009 339.485 155.22 344.12C153.46 348.725 151.685 353.404 149.896 358.156H148.532C146.772 353.492 145.056 348.872 143.384 344.296C141.712 339.691 139.996 335.041 138.236 330.348V353.844C138.236 354.812 138.485 355.501 138.984 355.912C139.57 356.293 140.582 356.484 142.02 356.484V357.892H133V356.484C134.437 356.484 135.376 356.323 135.816 356C136.285 355.648 136.52 355.105 136.52 354.372V331.052C136.52 330.201 136.285 329.6 135.816 329.248C135.346 328.867 134.422 328.676 133.044 328.676V327.224H140.348C141.932 331.565 143.516 335.848 145.1 340.072C146.713 344.296 148.312 348.593 149.896 352.964C151.48 348.593 153.064 344.296 154.648 340.072C156.261 335.848 157.86 331.565 159.444 327.224H167.1V328.676C165.398 328.676 164.357 328.867 163.976 329.248C163.653 329.659 163.492 330.216 163.492 330.92V353.844C163.492 354.753 163.682 355.399 164.064 355.78C164.621 356.249 165.633 356.484 167.1 356.484V357.892ZM194.465 350.28L191.429 357.936H169.825V356.484C171.321 356.484 172.406 356.264 173.081 355.824C173.58 355.472 173.829 354.856 173.829 353.976V331.14C173.829 330.172 173.594 329.512 173.125 329.16C172.568 328.779 171.468 328.588 169.825 328.588V327.18H180.957V328.588C179.021 328.588 177.818 328.779 177.349 329.16C176.88 329.541 176.645 330.201 176.645 331.14V354.02C176.645 354.9 176.836 355.516 177.217 355.868C177.657 356.22 178.39 356.396 179.417 356.396H184.301C186.296 356.396 187.968 355.853 189.317 354.768C190.725 353.771 192.074 352.084 193.365 349.708L194.465 350.28Z" fill="white"/>
<path d="M162.073 650.947C162.218 651.009 162.362 651.081 162.507 651.164C162.672 651.247 162.827 651.319 162.972 651.381C162.187 653.468 161.102 655.018 159.717 656.031C158.25 657.209 156.534 657.798 154.571 657.798C153.145 657.798 151.853 657.519 150.696 656.961C149.539 656.403 148.526 655.587 147.658 654.512C146.067 652.383 145.271 649.748 145.271 646.607C145.271 643.404 146.067 640.727 147.658 638.578C149.332 636.367 151.481 635.261 154.106 635.261C155.759 635.261 157.175 635.571 158.353 636.191C158.642 636.067 158.942 635.953 159.252 635.85C159.562 635.726 159.862 635.612 160.151 635.509C160.544 636.46 160.926 637.4 161.298 638.33C161.691 639.26 162.083 640.2 162.476 641.151C162.331 641.213 162.197 641.285 162.073 641.368C161.949 641.43 161.815 641.492 161.67 641.554C160.823 640.169 159.893 639.053 158.88 638.206C157.785 637.317 156.627 636.801 155.408 636.656C155.201 636.615 154.995 636.594 154.788 636.594C154.581 636.594 154.364 636.594 154.137 636.594C152.752 636.656 151.512 637.235 150.417 638.33C150.045 638.702 149.704 639.105 149.394 639.539C148.113 641.378 147.472 643.672 147.472 646.421C147.472 649.108 148.154 651.35 149.518 653.148C149.704 653.375 149.89 653.592 150.076 653.799C150.283 654.006 150.479 654.192 150.665 654.357C151.306 654.998 151.998 655.463 152.742 655.752C153.507 656.041 154.323 656.186 155.191 656.186C156.534 656.186 157.816 655.7 159.035 654.729C160.337 653.675 161.35 652.414 162.073 650.947ZM180.812 651.784C180.812 653.685 180.171 655.163 178.89 656.217C177.671 657.312 176.017 657.86 173.93 657.86C173.227 657.86 172.463 657.777 171.636 657.612C170.809 657.447 170.034 657.209 169.311 656.899C168.96 657.002 168.608 657.116 168.257 657.24C167.926 657.364 167.616 657.509 167.327 657.674C166.955 656.682 166.573 655.711 166.18 654.76C165.808 653.809 165.436 652.838 165.064 651.846C165.209 651.763 165.343 651.691 165.467 651.629C165.591 651.546 165.725 651.474 165.87 651.412C166.883 653.045 167.864 654.212 168.815 654.915C169.125 655.163 169.487 655.39 169.9 655.597C170.334 655.804 170.778 655.979 171.233 656.124C171.688 656.289 172.142 656.413 172.597 656.496C173.052 656.579 173.465 656.62 173.837 656.62C174.622 656.62 175.325 656.517 175.945 656.31C176.565 656.103 177.082 655.814 177.495 655.442C178.363 654.636 178.797 653.572 178.797 652.249C178.797 651.753 178.683 651.267 178.456 650.792C178.229 650.296 177.929 649.893 177.557 649.583C176.73 648.922 175.108 648.178 172.69 647.351C170.768 646.669 169.249 645.873 168.133 644.964C166.645 643.827 165.901 642.443 165.901 640.81C165.901 639.136 166.5 637.793 167.699 636.78C168.856 635.767 170.365 635.261 172.225 635.261C173.114 635.261 173.982 635.385 174.829 635.633C175.056 635.716 175.273 635.798 175.48 635.881C175.707 635.964 175.914 636.046 176.1 636.129L177.96 635.509C178.332 636.46 178.704 637.4 179.076 638.33C179.448 639.26 179.82 640.2 180.192 641.151C179.965 641.254 179.737 641.368 179.51 641.492C178.642 640.004 177.65 638.826 176.534 637.958C175.191 636.966 173.744 636.47 172.194 636.47C171.657 636.47 171.161 636.553 170.706 636.718C170.251 636.863 169.838 637.059 169.466 637.307C168.949 637.658 168.546 638.103 168.257 638.64C167.968 639.177 167.823 639.808 167.823 640.531C167.823 641.709 168.433 642.691 169.652 643.476C170.272 643.848 170.871 644.168 171.45 644.437C172.029 644.685 172.773 644.954 173.682 645.243C174.943 645.656 176.007 646.08 176.875 646.514C177.743 646.948 178.435 647.372 178.952 647.785C180.192 648.777 180.812 650.11 180.812 651.784ZM198.764 651.784C198.764 653.685 198.123 655.163 196.842 656.217C195.623 657.312 193.969 657.86 191.882 657.86C191.179 657.86 190.415 657.777 189.588 657.612C188.761 657.447 187.986 657.209 187.263 656.899C186.912 657.002 186.56 657.116 186.209 657.24C185.878 657.364 185.568 657.509 185.279 657.674C184.907 656.682 184.525 655.711 184.132 654.76C183.76 653.809 183.388 652.838 183.016 651.846C183.161 651.763 183.295 651.691 183.419 651.629C183.543 651.546 183.677 651.474 183.822 651.412C184.835 653.045 185.816 654.212 186.767 654.915C187.077 655.163 187.439 655.39 187.852 655.597C188.286 655.804 188.73 655.979 189.185 656.124C189.64 656.289 190.094 656.413 190.549 656.496C191.004 656.579 191.417 656.62 191.789 656.62C192.574 656.62 193.277 656.517 193.897 656.31C194.517 656.103 195.034 655.814 195.447 655.442C196.315 654.636 196.749 653.572 196.749 652.249C196.749 651.753 196.635 651.267 196.408 650.792C196.181 650.296 195.881 649.893 195.509 649.583C194.682 648.922 193.06 648.178 190.642 647.351C188.72 646.669 187.201 645.873 186.085 644.964C184.597 643.827 183.853 642.443 183.853 640.81C183.853 639.136 184.452 637.793 185.651 636.78C186.808 635.767 188.317 635.261 190.177 635.261C191.066 635.261 191.934 635.385 192.781 635.633C193.008 635.716 193.225 635.798 193.432 635.881C193.659 635.964 193.866 636.046 194.052 636.129L195.912 635.509C196.284 636.46 196.656 637.4 197.028 638.33C197.4 639.26 197.772 640.2 198.144 641.151C197.917 641.254 197.689 641.368 197.462 641.492C196.594 640.004 195.602 638.826 194.486 637.958C193.143 636.966 191.696 636.47 190.146 636.47C189.609 636.47 189.113 636.553 188.658 636.718C188.203 636.863 187.79 637.059 187.418 637.307C186.901 637.658 186.498 638.103 186.209 638.64C185.92 639.177 185.775 639.808 185.775 640.531C185.775 641.709 186.385 642.691 187.604 643.476C188.224 643.848 188.823 644.168 189.402 644.437C189.981 644.685 190.725 644.954 191.634 645.243C192.895 645.656 193.959 646.08 194.827 646.514C195.695 646.948 196.387 647.372 196.904 647.785C198.144 648.777 198.764 650.11 198.764 651.784Z" fill="white"/>
<path d="M481.25 519C481.25 553.825 448.123 582.25 407 582.25C365.877 582.25 332.75 553.825 332.75 519C332.75 484.175 365.877 455.75 407 455.75C448.123 455.75 481.25 484.175 481.25 519Z" stroke="white" stroke-width="1.5"/>
<path d="M385.638 508.749C384.543 508.749 383.799 508.883 383.406 509.152C383.096 509.379 382.941 509.793 382.941 510.392V522.575C382.941 524.58 382.424 526.223 381.391 527.504C380.068 529.075 377.929 529.86 374.974 529.86C372.763 529.86 370.965 529.219 369.58 527.938C368.113 526.533 367.379 524.642 367.379 522.265V510.423C367.379 509.803 367.193 509.379 366.821 509.152C366.428 508.883 365.653 508.749 364.496 508.749V507.726H372.246V508.749C371.068 508.749 370.283 508.883 369.89 509.152C369.58 509.379 369.425 509.803 369.425 510.423V522.451C369.425 524.394 369.993 525.902 371.13 526.977C372.246 528.031 373.775 528.558 375.718 528.558C377.185 528.558 378.415 528.155 379.407 527.349C380.895 526.233 381.639 524.611 381.639 522.482V510.392C381.639 509.813 381.463 509.4 381.112 509.152C380.719 508.883 379.975 508.749 378.88 508.749V507.726H385.638V508.749ZM394.873 529.333H387.557V528.341C388.57 528.341 389.273 528.207 389.665 527.938C390.017 527.69 390.192 527.277 390.192 526.698V510.547C390.192 509.886 390.017 509.41 389.665 509.121C389.252 508.832 388.549 508.687 387.557 508.687V507.726H394.873V508.687C394.501 508.687 394.171 508.718 393.881 508.78C393.613 508.821 393.375 508.873 393.168 508.935C392.776 509.08 392.517 509.286 392.393 509.555C392.269 509.803 392.207 510.134 392.207 510.547V526.698C392.207 527.318 392.362 527.731 392.672 527.938C393.086 528.207 393.819 528.341 394.873 528.341V529.333ZM407.65 505.401C405.976 509.844 404.333 514.236 402.721 518.576C401.13 522.895 399.497 527.277 397.823 531.72H396.304C397.937 527.277 399.559 522.895 401.171 518.576C402.783 514.236 404.405 509.844 406.038 505.401H407.65ZM429.353 508.749C428.258 508.749 427.514 508.883 427.121 509.152C426.811 509.379 426.656 509.793 426.656 510.392V522.575C426.656 524.58 426.139 526.223 425.106 527.504C423.783 529.075 421.644 529.86 418.689 529.86C416.478 529.86 414.68 529.219 413.295 527.938C411.828 526.533 411.094 524.642 411.094 522.265V510.423C411.094 509.803 410.908 509.379 410.536 509.152C410.143 508.883 409.368 508.749 408.211 508.749V507.726H415.961V508.749C414.783 508.749 413.998 508.883 413.605 509.152C413.295 509.379 413.14 509.803 413.14 510.423V522.451C413.14 524.394 413.708 525.902 414.845 526.977C415.961 528.031 417.49 528.558 419.433 528.558C420.9 528.558 422.13 528.155 423.122 527.349C424.61 526.233 425.354 524.611 425.354 522.482V510.392C425.354 509.813 425.178 509.4 424.827 509.152C424.434 508.883 423.69 508.749 422.595 508.749V507.726H429.353V508.749ZM448.849 508.718C448.457 508.718 448.095 508.759 447.764 508.842C447.434 508.904 447.124 509.038 446.834 509.245C446.669 509.348 446.483 509.524 446.276 509.772C446.07 510.02 445.832 510.32 445.563 510.671L440.944 517.677L446.741 526.791C447.134 527.432 447.496 527.835 447.826 528C448.24 528.227 448.963 528.341 449.996 528.341V529.333H441.843V528.341C443.249 528.341 444.106 528.217 444.416 527.969C444.54 527.886 444.602 527.773 444.602 527.628C444.602 527.463 444.52 527.266 444.354 527.039L439.704 519.692L435.55 526.109C435.302 526.46 435.106 526.75 434.961 526.977C434.837 527.204 434.775 527.39 434.775 527.535C434.775 527.948 435.261 528.207 436.232 528.31C436.398 528.331 436.573 528.341 436.759 528.341C436.945 528.341 437.152 528.341 437.379 528.341V529.333H430.28V528.341C431.293 528.341 432.037 528.155 432.512 527.783C432.678 527.638 432.864 527.463 433.07 527.256C433.277 527.029 433.484 526.76 433.69 526.45L438.991 518.452L433.721 510.113C433.391 509.596 433.112 509.266 432.884 509.121C432.636 508.956 432.347 508.852 432.016 508.811C431.706 508.749 431.355 508.718 430.962 508.718V507.726H438.588V508.718C437.824 508.718 437.245 508.739 436.852 508.78C436.48 508.801 436.222 508.863 436.077 508.966C435.788 509.193 435.757 509.472 435.984 509.803L440.231 516.437L444.323 510.237C444.613 509.824 444.644 509.462 444.416 509.152C444.189 508.863 443.445 508.718 442.184 508.718V507.726H448.849V508.718Z" fill="white"/>
<path d="M519.719 173.422C517.145 173.422 515.363 173.653 514.373 174.115C513.119 174.511 512.261 175.138 511.799 175.996C511.403 176.854 511.205 177.943 511.205 179.263V220.843C511.205 227.377 509.918 232.36 507.344 235.792C504.968 239.158 501.635 240.841 497.345 240.841C494.375 240.841 491.669 240.28 489.227 239.158C486.125 237.574 484.574 235.396 484.574 232.624C484.574 231.106 485.036 229.885 485.96 228.961C486.884 227.839 487.973 227.278 489.227 227.278C492.263 227.278 493.814 228.697 493.88 231.535C493.88 232.063 493.88 232.558 493.88 233.02C493.946 233.482 494.012 233.878 494.078 234.208C494.144 235.33 494.342 235.924 494.672 235.99C495.398 236.518 496.223 236.782 497.147 236.782C498.599 236.782 499.787 236.518 500.711 235.99C501.701 235.462 502.526 234.538 503.186 233.218C504.308 230.776 504.869 227.377 504.869 223.021V179.263C504.869 177.085 504.341 175.6 503.285 174.808C501.767 173.884 499.424 173.422 496.256 173.422V170.254H519.719V173.422ZM575.004 221.536C575.004 227.608 572.958 232.327 568.866 235.693C564.972 239.191 559.692 240.94 553.026 240.94C550.782 240.94 548.34 240.676 545.7 240.148C543.06 239.62 540.585 238.861 538.275 237.871C537.153 238.201 536.031 238.564 534.909 238.96C533.853 239.356 532.863 239.818 531.939 240.346C530.751 237.178 529.53 234.076 528.276 231.04C527.088 228.004 525.9 224.902 524.712 221.734C525.174 221.47 525.603 221.239 525.999 221.041C526.395 220.777 526.824 220.546 527.286 220.348C530.52 225.562 533.655 229.291 536.691 231.535C537.681 232.327 538.836 233.053 540.156 233.713C541.542 234.373 542.961 234.934 544.413 235.396C545.865 235.924 547.317 236.32 548.769 236.584C550.221 236.848 551.541 236.98 552.729 236.98C555.237 236.98 557.481 236.65 559.461 235.99C561.441 235.33 563.091 234.406 564.411 233.218C567.183 230.644 568.569 227.245 568.569 223.021C568.569 221.437 568.206 219.886 567.48 218.368C566.754 216.784 565.797 215.497 564.609 214.507C561.969 212.395 556.788 210.019 549.066 207.379C542.928 205.201 538.077 202.66 534.513 199.756C529.761 196.126 527.385 191.704 527.385 186.49C527.385 181.144 529.299 176.854 533.127 173.62C536.823 170.386 541.641 168.769 547.581 168.769C550.419 168.769 553.191 169.165 555.897 169.957C556.623 170.221 557.316 170.485 557.976 170.749C558.702 171.013 559.362 171.277 559.956 171.541L565.896 169.561C567.084 172.597 568.272 175.6 569.46 178.57C570.648 181.54 571.836 184.543 573.024 187.579C572.298 187.909 571.572 188.272 570.846 188.668C568.074 183.916 564.906 180.154 561.342 177.382C557.052 174.214 552.432 172.63 547.482 172.63C545.766 172.63 544.182 172.894 542.73 173.422C541.278 173.884 539.958 174.511 538.77 175.303C537.12 176.425 535.833 177.844 534.909 179.56C533.985 181.276 533.523 183.289 533.523 185.599C533.523 189.361 535.47 192.496 539.364 195.004C541.344 196.192 543.258 197.215 545.106 198.073C546.954 198.865 549.33 199.723 552.234 200.647C556.26 201.967 559.659 203.32 562.431 204.706C565.203 206.092 567.414 207.445 569.064 208.765C573.024 211.933 575.004 216.19 575.004 221.536Z" fill="white"/>
</svg>
